
Bambara Walalla (2009)
108 min  -  Drama | Thriller

Ratings: 8.0/10 from 21 users  

An Ordinary meaningless existence can suddenly change by life and death

Director:
Athula Liyanage
Writer:
Athula Liyanage
Stars:
Damitha Abeyratne, Neeta Fernando and Athula Liyanage 


                            MoViE InFo
Babarawalla.1CD.MKV.mkv
Format                           : Matroska
File size                        : 300 MiB
Duration                         : 1h 1mn
Overall bit rate                 : 460 Kbps
Writing application              : HandBrake 0.9.5
Writing library                  : libmkv 0.6.4.1

Video
ID                               : 1
Format                           : AVC
Format/Info                      : Advanced Video Codec
Format profile                   : Main@L1.3
Format settings, CABAC           : Yes
Format settings, ReFrames        : 4 frames
Codec ID                         : V_MPEG4/ISO/AVC
Duration                         : 1h 1mn
Bit rate                         : 227 Kbps
Width                            : 352 pixels
Height                           : 224 pixels
Display aspect ratio             : 1.571
Frame rate mode                  : Variable
Frame rate                       : 25.000 fps
Color space                      : YUV
Chroma subsampling               : 4:2:0
Bit depth                        : 8 bits
Scan type                        : Progressive
Bits/(Pixel*Frame)               : 0.115
Stream size                      : 99.6 MiB (49%)
Writing library                  : x264 core 112
Language                         : English
Color primaries                  : BT.601-6 525, BT.1358 525, BT.1700 NTSC, SMPTE 170M
Transfer characteristics         : BT.709-5, BT.1361
Matrix coefficients              : BT.601-6 525, BT.1358 525, BT.1700 NTSC, SMPTE 170M

Audio
ID                               : 2
Format                           : AC-3
Format/Info                      : Audio Coding 3
Mode extension                   : CM (complete main)
Codec ID                         : A_AC3
Duration                         : 1h 1mn
Bit rate mode                    : Constant
Bit rate                         : 224 Kbps
Channel(s)                       : 2 channels
Channel positions                : Front: L R
Sampling rate                    : 44.1 KHz
Bit depth                        : 16 bits
Compression mode                 : Lossy
Stream size                      : 98.4 MiB (49%)

PLEASE SEED B'COZ SRI LANKA IS SUX @ SEEDING :)
